# xmcd
#
# Track frame offsets: 
#        150
#        12457
#        29372
#        49102
#        67816
#        84673
#        106546
#        124656
#        142081
#        156360
#        174775
#        191125
#        209935
#        227919
#        239424
#        255735
#        284560
#
# Disc length: 4035 seconds
#
# Revision: 0
# Processed by: cddbd v1.5.1PL2 Copyright (c) Steve Scherf et al.
# Submitted via: ExactAudioCopy v0.95a5
#
DISCID=f80fc111
DTITLE=Various Artist - Texas Music Magazine - Inside The Music Of Texas Vol.
DTITLE=1
DYEAR=1995
DGENRE=Country
TTITLE0=Flatlanders - Yesterday Was Judgement Day
TTITLE1=Terri Hendrix - It's A Given
TTITLE2=Chao - Gotta Go
TTITLE3=Chomsky - Gravitate
TTITLE4=Damnations - Quarter In The Couch
TTITLE5=Nathan Hamilton - Fiero's Run
TTITLE6=Jesse Dayton - Never Started Living
TTITLE7=Patrice Pike and The Black Box Rebellion - Jackknife Girl
TTITLE8=Caroline Herring - Wise Woman
TTITLE9=Mark David Manders and Nuevos Tejas - Three Fingers Tequila
TTITLE10=Jon Dee Graham - Laredo
TTITLE11=Darden Smith - Satellite
TTITLE12=Ruthie Foster - Runaway Soul
TTITLE13=Centro-Matic - On The Sagtikos
TTITLE14=Beth Black - Happy
TTITLE15=Shawn Pittman - Can't Take That Away
TTITLE16=Adam Carroll - Red Bandana Blues
EXTD=
EXTT0=
EXTT1=
EXTT2=
EXTT3=
EXTT4=
EXTT5=
EXTT6=
EXTT7=
EXTT8=
EXTT9=
EXTT10=
EXTT11=
EXTT12=
EXTT13=
EXTT14=
EXTT15=
EXTT16=
PLAYORDER=
